<svg width="185.6" height="200" xmlns="http://www.w3.org/2000/svg">
 <defs>
  <style>.cls-1{fill:#448aff;}.cls-2{fill:#2979ff;}.cls-3{fill:#fff;}.cls-4{fill:#a2c5ff;}</style>
 </defs>
 <title>components</title>
 <g>
  <title>background</title>
  <rect fill="none" id="canvas_background" height="402" width="582" y="-1" x="-1"/>
 </g>
 <g>
  <title>Layer 1</title>
  <g id="Layer_2">
   <g id="Layer_1-2">
    <polygon fill="#E6C36A" id="svg_1" points="92.4 0 92.4 0 92.4 0 0 33.3 14 156.1 92.4 200 92.4 200 92.4 200 171.3 156.1 185.6 33.3 92.4 0" class="cls-1"/>
    <polygon stroke-width="0" fill="none" id="svg_2" points="92.4000015258789,1 92.4000015258789,23.200000762939453 92.4000015258789,23.200000762939453 92.4000015258789,124.19999694824219 92.4000015258789,124.19999694824219 92.4000015258789,201 92.4000015258789,201 171.3000030517578,157.10000610351562 185.60000610351562,34.29999923706055 92.4000015258789,1 " class="cls-2"/>
    <line stroke-linecap="null" stroke-linejoin="null" id="svg_9" y2="109.4375" x2="86.799988" y1="29.4375" x1="42.799988" stroke-opacity="null" stroke-width="null" stroke="null" fill="none"/>
   </g>
  </g>
  <path stroke="null" id="svg_7" d="m93.34475,55.52534c-2.20319,0 -3.98008,1.82768 -3.98008,4.07964l0,38.35905l-24.08765,10.04581c-2.01593,0.90568 -2.93227,3.31266 -2.04781,5.37696c0.65339,1.52986 2.11156,2.4437 3.64542,2.4437c0.53386,0 1.07968,-0.11015 1.59761,-0.34677l26.3984,-11.82278c0.01992,-0.00816 0.03586,-0.01632 0.0518,-0.02448l0.01593,-0.00816c0.05976,-0.02447 0.09164,-0.08159 0.14741,-0.10199c0.41435,-0.21214 0.8008,-0.461 1.11156,-0.79553c0.13545,-0.1387 0.21115,-0.31821 0.31474,-0.47731c0.19123,-0.2611 0.40239,-0.51812 0.51793,-0.83225c0.09561,-0.24478 0.10358,-0.50995 0.15139,-0.77105c0.05179,-0.2611 0.15139,-0.49364 0.15139,-0.75881l0,-40.29047c0,-2.24788 -1.78486,-4.07556 -3.98804,-4.07556zm62.25497,6.96394c0,-15.63316 -12.37052,-28.30451 -27.64143,-28.30451c-7.72112,0 -14.68526,3.24739 -19.68127,8.47341c-4.76893,-1.30141 -9.75697,-2.06022 -14.92829,-2.06022c-5.31474,0 -10.43824,0.79553 -15.32669,2.16629c-5.01594,-5.28313 -12.01594,-8.57948 -19.78087,-8.57948c-15.26694,0 -27.64144,12.67135 -27.64144,28.30451c0,7.52692 2.89243,14.34807 7.57371,19.41906c-1.76494,5.67069 -2.72909,11.70855 -2.72909,17.98303c0,32.74722 25.9243,59.29341 57.90438,59.29341c31.98008,0 57.90438,-26.54619 57.90438,-59.29341c0,-6.42543 -1.03187,-12.59383 -2.8765,-18.39099c4.47809,-5.02203 7.22311,-11.68 7.22311,-19.0111zm-62.25099,84.45251c-25.34263,0 -45.95219,-21.10803 -45.95219,-47.05042c0,-25.94648 20.60956,-47.05451 45.95219,-47.05451c25.34263,0 45.9482,21.10395 45.9482,47.05451c0,25.95055 -20.61354,47.05042 -45.9482,47.05042z" fill-opacity="null" stroke-opacity="null" stroke-width="0" fill="#ffffff"/>
  <ellipse ry="44" rx="43.5" id="svg_8" cy="95.4375" cx="93.299988" fill-opacity="null" stroke-opacity="null" stroke-width="0" stroke="null" fill="#ffffff"/>
  <line stroke-linecap="null" stroke-linejoin="null" id="svg_11" y2="138.101853" x2="189.096303" y1="193.657411" x1="160.207413" fill="none"/>
  <path id="svg_15" d="m33.540741,150.694447" opacity="0.5" stroke-width="72" fill="#CE7975"/>
  <path stroke="null" d="m103.911118,83.287033c0,0 0,0.740746 0,1.481483c0,1.481483 0,3.703705 0,5.925926c0,2.222221 0,4.444443 0,6.666672c0,1.481476 0,2.962959 0,4.444443c0,0 0,1.481483 0,2.222221c0,0.740738 0,1.481483 0,2.962959c0,1.481483 0,2.962967 0,4.44445c0,0.740738 0,2.962959 0,4.444443c0,3.703705 0,6.666664 0,11.111115c0,5.185188 0,7.407402 0,8.888893l0,0.740738l0,0l0.740738,0" id="svg_17" stroke-opacity="null" stroke-width="0" fill="none"/>
  <path id="svg_18" d="m-263.566129,104.516155c-0.06447,-0.070407 0.065663,-0.18955 0.124162,-0.108391c0.049933,0.070343 -0.061058,0.159779 -0.124162,0.108391zm0.172631,0.160237c-0.052683,-0.077517 0.091472,-0.160337 0.137074,-0.082904c0.054129,0.080971 -0.092143,0.173445 -0.137074,0.082904zm0.196528,0.193873c-0.065818,-0.044554 -0.000408,-0.147327 0.067744,-0.138161c0.094667,0.014449 0.069366,0.172208 -0.022965,0.164474c-0.017923,-0.002079 -0.033892,-0.012257 -0.044779,-0.026313zm0.164389,0.171182c-0.055042,-0.069982 0.071883,-0.161896 0.12524,-0.095259c0.058036,0.074126 -0.071486,0.17197 -0.12524,0.095259zm-0.319219,0.003837c-0.06119,-0.057923 0.028627,-0.151514 0.0962,-0.127084c0.098185,0.031428 0.025188,0.182533 -0.062437,0.148205c-0.012054,-0.00571 -0.022848,-0.013564 -0.033763,-0.021121zm-0.260268,0c-0.071918,-0.067166 0.059487,-0.177502 0.121037,-0.107241c0.062448,0.073237 -0.054741,0.177151 -0.121037,0.107241zm-0.257088,-0.003837c-0.055076,-0.069962 0.071918,-0.161928 0.125222,-0.095231c0.057871,0.074244 -0.07129,0.171908 -0.125222,0.095231zm-0.244858,0.003837c-0.071918,-0.067166 0.059487,-0.177502 0.121037,-0.107241c0.062448,0.073237 -0.054741,0.177151 -0.121037,0.107241zm-0.257066,-0.003778c-0.063107,-0.082575 0.107569,-0.172691 0.136024,-0.069102c0.021038,0.069324 -0.092897,0.129691 -0.136024,0.069102zm1.163686,0.18355c-0.061323,-0.063626 0.047747,-0.174779 0.113189,-0.116867c0.080816,0.057692 -0.026267,0.191361 -0.100463,0.129671c-0.004185,-0.004323 -0.008473,-0.008546 -0.012725,-0.012804zm-0.186105,0.157777c-0.051694,-0.073736 0.082669,-0.154666 0.131205,-0.085518c0.063312,0.073452 -0.063849,0.173529 -0.122406,0.100149l-0.008799,-0.014631zm-0.166466,0.196224c-0.05585,-0.051092 0.020866,-0.131561 0.081663,-0.117875c0.09254,0.023874 0.034224,0.172285 -0.050655,0.14412c-0.013152,-0.004518 -0.023824,-0.014558 -0.031007,-0.026245z" stroke-opacity="null" stroke-width="0" stroke="null" fill="#458aff"/>
  <rect rx="2" stroke="null" id="svg_19" height="36.2963" width="5.18518" y="61.805554" x="89.83705" stroke-opacity="null" stroke-width="0" fill="#458aff"/>
  <rect transform="rotate(136 105.02223205566406,108.84259033203124) " rx="2" stroke="null" id="svg_21" height="36.2963" width="5.18518" y="90.694443" x="102.429644" stroke-opacity="null" stroke-width="0" fill="#458aff"/>
 </g>
</svg>